<?xml version="1.0" encoding="utf-8"?>
<!-- Generator: Adobe Illustrator 19.1.0, SVG Export Plug-In . SVG Version: 6.00 Build 0)  -->
<!DOCTYPE svg PUBLIC "-//W3C//DTD SVG 1.1//EN" "http://www.w3.org/Graphics/SVG/1.1/DTD/svg11.dtd">
<svg version="1.1" id="Layer_1" xmlns="http://www.w3.org/2000/svg" xmlns:xlink="http://www.w3.org/1999/xlink" x="0px" y="0px"
	 width="240px" height="120px" viewBox="0 0 240 120" enable-background="new 0 0 240 120" xml:space="preserve">
<g transform="translate(22, 22)">
	<path fill="#7D7160" d="M195,4h-4V1c0-0.6-0.4-1-1-1h-7c-1.7,0-3,1.3-3,3v10c0,1.7,1.3,3,3,3h12c0.6,0,1-0.4,1-1V5
		C196,4.4,195.6,4,195,4z M182,3c0-0.6,0.4-1,1-1h6v2h-7V3z M194,14h-11c-0.6,0-1-0.4-1-1V6h8h4V14z"/>
	<rect x="191" y="9" fill="#D2C9C0" width="2" height="2"/>
</g>
<g transform="translate(82, 22)">
	<path fill="#7D7160" d="M15,4h-3V1c0-0.6-0.4-1-1-1H5C4.4,0,4,0.4,4,1v3H1C0.4,4,0,4.4,0,5v10c0,0.6,0.4,1,1,1h14c0.6,0,1-0.4,1-1
		V5C16,4.4,15.6,4,15,4z M6,2h4v2H6V2z M14,14H2V6h12V14z"/>
	<rect x="5" y="7" fill="#D2C9C0" width="6" height="3"/>
</g>
<g transform="translate(142, 22)">
	<circle fill="#D2C9C0" cx="6" cy="8" r="2"/>
	<path fill="#7D7160" d="M10,2H6C2.7,2,0,4.7,0,8s2.7,6,6,6h4c3.3,0,6-2.7,6-6S13.3,2,10,2z M10,12H6c-2.2,0-4-1.8-4-4s1.8-4,4-4h4
		c2.2,0,4,1.8,4,4S12.2,12,10,12z"/>
</g>
<g transform="translate(202, 22)">
	<path fill="#7D7160" d="M-177,16h10c0.6,0,1-0.4,1-1V7.5l0.3,0.3c0.2,0.1,0.5,0.2,0.7,0.2c0.3,0,0.6-0.1,0.8-0.3
		c0.4-0.4,0.3-1-0.1-1.4l-7-6c-0.4-0.3-0.9-0.3-1.3,0l-3.4,2.8V2c0-0.6-0.4-1-1-1c-0.6,0-1,0.4-1,1v2.8l-1.7,1.4
		c-0.4,0.4-0.5,1-0.1,1.4c0.4,0.4,1,0.5,1.4,0.1l0.4-0.2V15C-178,15.6-177.6,16-177,16z M-176,5.7l4-3.4l4,3.5c0,0.1,0,0.1,0,0.2v8
		h-2v-3c0-0.6-0.4-1-1-1h-2c-0.6,0-1,0.4-1,1v3h-2V5.7z"/>
	<rect x="-174" y="6" fill="#D2C9C0" width="4" height="2"/>
</g>
<g transform="translate(22, 82)">
	<path fill="#FF6155" d="M195,4h-4V1c0-0.6-0.4-1-1-1h-7c-1.7,0-3,1.3-3,3v10c0,1.7,1.3,3,3,3h12c0.6,0,1-0.4,1-1V5
		C196,4.4,195.6,4,195,4z M182,3c0-0.6,0.4-1,1-1h6v2h-7V3z M194,14h-11c-0.6,0-1-0.4-1-1V6h8h4V14z"/>
	<rect x="191" y="9" fill="#FF6155" width="2" height="2"/>
</g>
<g transform="translate(82, 82)">
	<path fill="#FF6155" d="M15,4h-3V1c0-0.6-0.4-1-1-1H5C4.4,0,4,0.4,4,1v3H1C0.4,4,0,4.4,0,5v10c0,0.6,0.4,1,1,1h14c0.6,0,1-0.4,1-1
		V5C16,4.4,15.6,4,15,4z M6,2h4v2H6V2z M14,14H2V6h12V14z"/>
	<rect x="5" y="7" fill="#FF6155" width="6" height="3"/>
</g>
<g transform="translate(142, 82)">
	<circle fill="#FF6155" cx="6" cy="8" r="2"/>
	<path fill="#FF6155" d="M10,2H6C2.7,2,0,4.7,0,8s2.7,6,6,6h4c3.3,0,6-2.7,6-6S13.3,2,10,2z M10,12H6c-2.2,0-4-1.8-4-4s1.8-4,4-4h4
		c2.2,0,4,1.8,4,4S12.2,12,10,12z"/>
</g>
<g transform="translate(202, 82)">
	<path fill="#FF6155" d="M-177,16h10c0.6,0,1-0.4,1-1V7.5l0.3,0.3c0.2,0.1,0.5,0.2,0.7,0.2c0.3,0,0.6-0.1,0.8-0.3
		c0.4-0.4,0.3-1-0.1-1.4l-7-6c-0.4-0.3-0.9-0.3-1.3,0l-3.4,2.8V2c0-0.6-0.4-1-1-1c-0.6,0-1,0.4-1,1v2.8l-1.7,1.4
		c-0.4,0.4-0.5,1-0.1,1.4c0.4,0.4,1,0.5,1.4,0.1l0.4-0.2V15C-178,15.6-177.6,16-177,16z M-176,5.7l4-3.4l4,3.5c0,0.1,0,0.1,0,0.2v8
		h-2v-3c0-0.6-0.4-1-1-1h-2c-0.6,0-1,0.4-1,1v3h-2V5.7z"/>
	<rect x="-174" y="6" fill="#FF6155" width="4" height="2"/>
</g>
</svg>
